
<svg xmlns="http://www.w3.org/2000/svg" version="1.1" xmlns:xlink="http://www.w3.org/1999/xlink" preserveAspectRatio="none" x="0px" y="0px" width="40px" height="44px" viewBox="0 0 40 44">
<defs>
<g id="Layer0_0_FILL">
<path fill="#D65124" stroke="none" d="
M -95.3 96.3
Q -95.0552734375 97.233203125 -95.3 98.25 -95.65 99.55 -96.5 100.5
L -112.8 108.45
Q -129.95 116.8 -134.1 118.6 -138.2 120.4 -142.9 119.55 -145.25 119.1 -146.75 118.3
L -161.5 111.55
Q -177.05 104.25 -181.2 101.35 -183.85 99.75 -184.15 97.9 -184.2974609375 97.0443359375 -183.9 96.2
L -184.15 96.55
Q -185.05 98.65 -184.05 101.2 -183.35 102.45 -181.6 103.55 -179.85 104.65 -145.85 121.3 -144.55 121.9 -142.5 122.15 -138.35 122.7 -134.4 121.15 -130.45 119.6 -113.45 111.15
L -97.25 103
Q -96.4 102.65 -95.75 101.6 -94.4 99.55 -95.3 96.3 Z"/>

<path fill="#F2EEE3" stroke="none" d="
M -160.55 85.05
Q -158.0935546875 86.36953125 -154.25 87.7 -146.45 90.35 -139.3 90.35 -132.15 90.35 -125 87.55
L -119.25 84.75 -119.75 82.6 -121.7 73.95 -126.1 76.4
Q -128.1732421875 77.278515625 -130.5 77.85 -134.7056640625 78.882421875 -139.7 78.85 -143.1943359375 78.82734375 -146.4 78.4 -150.191015625 77.9150390625 -153.55 76.85 -156.65 75.85 -158.2 74.85
L -160.55 85.05
M -149.15 48.6
Q -151 47.9 -151.85 47.2
L -153.3 53.6 -153.9 56.5
Q -152.9 57.55 -150.75 58.55 -146.35 60.6 -140.4 60.6 -134.45 60.6 -129.6 58.4
L -126 56.2 -128.3 46.65 -131.45 48.3
Q -135.6 49.95 -140.55 49.95 -145.5 49.95 -149.15 48.6 Z"/>

<path fill="#ED6938" stroke="none" d="
M -126 56.2
L -129.6 58.4
Q -134.45 60.6 -140.4 60.6 -146.35 60.6 -150.75 58.55 -152.9 57.55 -153.9 56.5
L -153.3 53.6 -158.2 74.85
Q -156.65 75.85 -153.55 76.85 -150.191015625 77.9150390625 -146.4 78.4 -143.1943359375 78.82734375 -139.7 78.85 -134.7056640625 78.882421875 -130.5 77.85 -128.1732421875 77.278515625 -126.1 76.4
L -121.7 73.95 -119.75 82.6 -119.25 84.75 -125 87.55
Q -132.15 90.35 -139.3 90.35 -146.45 90.35 -154.25 87.7 -158.0935546875 86.36953125 -160.55 85.05 -160.5646484375 85.01953125 -160.6 85
L -160.5 84.5
Q -178.4732421875 92.2853515625 -180.35 93.05 -182.1 93.8 -183.1 95 -183.6330078125 95.5943359375 -183.9 96.2 -184.2974609375 97.0443359375 -184.15 97.9 -183.85 99.75 -181.2 101.35 -177.05 104.25 -161.5 111.55
L -146.75 118.3
Q -145.25 119.1 -142.9 119.55 -138.2 120.4 -134.1 118.6 -129.95 116.8 -112.8 108.45
L -96.5 100.5
Q -95.65 99.55 -95.3 98.25 -95.0552734375 97.233203125 -95.3 96.3 -95.666796875 94.815625 -97.35 93.6 -100.7162109375 91.133984375 -119.6 82.65
L -126 56.2
M -117.75 90.35
Q -116.25 91.55 -115.25 93.45 -114.15 95.4 -114.35 96.6 -116.1 109.85 -141.1 110.55 -148.85 110.75 -154.9 107.95 -160.35 105.35 -163.2 100.95 -165.4 97.5 -163.95 94.15
L -162 91.5 -163.1 96.45
Q -162.9 99.5 -160.05 102.5 -154.4 108.55 -141.3 108.55 -124 108.55 -118.6 101.8 -116.9 99.7 -116.55 97.15
L -116.6 95.05 -117.75 90.35
M -147.1 26.7
L -151.85 47.2
Q -151 47.9 -149.15 48.6 -145.5 49.95 -140.55 49.95 -135.6 49.95 -131.45 48.3
L -128.3 46.65 -132.95 27.25 -133.2 27.2
Q -133.4900390625 28.3498046875 -135.15 29.2 -137.2 30.25 -140.1 30.25 -143 30.25 -145.05 29.2 -147.1 28.15 -147.1 26.7 Z"/>

<path fill="#D9552E" stroke="none" d="
M -115.25 93.45
Q -116.25 91.55 -117.75 90.35
L -116.6 95.05 -116.55 97.15
Q -116.9 99.7 -118.6 101.8 -124 108.55 -141.3 108.55 -154.4 108.55 -160.05 102.5 -162.9 99.5 -163.1 96.45
L -162 91.5 -163.95 94.15
Q -165.4 97.5 -163.2 100.95 -160.35 105.35 -154.9 107.95 -148.85 110.75 -141.1 110.55 -116.1 109.85 -114.35 96.6 -114.15 95.4 -115.25 93.45 Z"/>

<path fill="#DA5630" stroke="none" d="
M -135.15 24.2
Q -137.2 23.15 -140.1 23.15 -143 23.15 -145.05 24.2 -147.075 25.237109375 -147.1 26.65
L -147.1 26.7
Q -147.1 28.15 -145.05 29.2 -143 30.25 -140.1 30.25 -137.2 30.25 -135.15 29.2 -133.4900390625 28.3498046875 -133.2 27.2 -133.1 26.9759765625 -133.1 26.7 -133.1 25.25 -135.15 24.2 Z"/>
</g>
</defs>

<g transform="matrix( 0.43475341796875, 0, 0, 0.4326629638671875, 80.75,-9.45) ">
<use xlink:href="#Layer0_0_FILL"/>
</g>
</svg>
